<svg xmlns="http://www.w3.org/2000/svg" viewBox="0 0 48 48" width="120" height="40">
  <path fill="#EA4335" d="M24 12.5c3.5 0 6.4 1.2 8.4 3.1l6.2-6.2C34.7 6 29.7 4 24 4 14.9 4 7.3 9.6 4.5 17.3l7.4 5.7C13.6 16.2 18.3 12.5 24 12.5z"/>
  <path fill="#34A853" d="M46.5 24.5c0-1.6-.2-3.1-.6-4.5H24v8.5h12.9c-.6 3-2.4 5.6-5.1 7.3l7.9 6.1C43.8 37.6 46.5 31.4 46.5 24.5z"/>
  <path fill="#4A90E2" d="M11.9 29.3C13.7 33.1 18.5 36 24 36c4.9 0 9.2-2 12.4-5.2l-7.9-6.1C28.5 27.8 26.4 29 24 29c-4.6 0-8.4-3-9.6-7.2L11.9 29.3z"/>
  <path fill="#FBBC05" d="M4.5 17.3C3.8 19.4 3.5 21.7 3.5 24s.3 4.6 1 6.7L11.9 29.3C11 26.8 11 25 11 24s0-2.8.9-5.3L4.5 17.3z"/>
</svg>